<?xml version="1.0" standalone="no"?>
<svg viewBox="0 0 200 200" xmlns="http://www.w3.org/2000/svg">
  <path fill="#08BDBA" d="M45,-77.1C58.7,-70,70.4,-58.7,79.2,-45.2C88,-31.6,93.8,-15.8,92.8,-0.6C91.8,14.7,84,29.4,75.1,42.6C66.1,55.8,56,67.7,43.3,75.2C30.6,82.8,15.3,86,-0.2,86.4C-15.7,86.7,-31.4,84.1,-44.4,76.7C-57.3,69.3,-67.6,57.2,-75.3,43.6C-82.9,30,-87.9,15,-88.1,-0.1C-88.3,-15.2,-83.7,-30.4,-75.6,-43.3C-67.5,-56.1,-56.1,-66.7,-42.9,-74C-29.7,-81.3,-14.9,-85.5,0.4,-86.2C15.7,-86.9,31.3,-84.1,45,-77.1Z" transform="translate(100 100)" />
</svg>
